<?xml version="1.0" encoding="UTF-8" standalone="no"?>
<!-- Created with Inkscape (http://www.inkscape.org/) -->

<svg
   xmlns:dc="http://purl.org/dc/elements/1.1/"
   xmlns:cc="http://creativecommons.org/ns#"
   xmlns:rdf="http://www.w3.org/1999/02/22-rdf-syntax-ns#"
   xmlns:svg="http://www.w3.org/2000/svg"
   xmlns="http://www.w3.org/2000/svg"
   xmlns:sodipodi="http://sodipodi.sourceforge.net/DTD/sodipodi-0.dtd"
   xmlns:inkscape="http://www.inkscape.org/namespaces/inkscape"
   id="svg2"
   version="1.1"
   inkscape:version="0.48.4 r9939"
   width="400"
   height="400"
   sodipodi:docname="logo.svg">
  <metadata
     id="metadata8">
    <rdf:RDF>
      <cc:Work
         rdf:about="">
        <dc:format>image/svg+xml</dc:format>
        <dc:type
           rdf:resource="http://purl.org/dc/dcmitype/StillImage" />
        <dc:title />
      </cc:Work>
    </rdf:RDF>
  </metadata>
  <defs
     id="defs6">
    <inkscape:perspective
       sodipodi:type="inkscape:persp3d"
       inkscape:vp_x="0 : 0.5 : 1"
       inkscape:vp_y="0 : 1000 : 0"
       inkscape:vp_z="1 : 0.5 : 1"
       inkscape:persp3d-origin="0.5 : 0.33333333 : 1"
       id="perspective10" />
  </defs>
  <sodipodi:namedview
     pagecolor="#ffffff"
     bordercolor="#666666"
     borderopacity="1"
     objecttolerance="10"
     gridtolerance="10"
     guidetolerance="10"
     inkscape:pageopacity="0"
     inkscape:pageshadow="2"
     inkscape:window-width="1301"
     inkscape:window-height="744"
     id="namedview4"
     showgrid="false"
     inkscape:zoom="1.7946767"
     inkscape:cx="186.35676"
     inkscape:cy="209.58218"
     inkscape:window-x="65"
     inkscape:window-y="24"
     inkscape:window-maximized="1"
     inkscape:current-layer="svg2" />
  <path
     style="fill:#a02c2c"
     d="m 190.83796,277.52307 c -1.22875,-0.47824 -8.62583,-7.43593 -14.10865,-13.27063 -0.48886,-0.52024 -2.09256,-2.1287 -3.56375,-3.57434 -1.4712,-1.44565 -3.43726,-3.38816 -4.36903,-4.31668 -0.93176,-0.92852 -2.98031,-2.93929 -4.55233,-4.46837 -1.57202,-1.52907 -3.53245,-3.48705 -4.35652,-4.35105 -0.82407,-0.864 -4.20235,-4.18748 -7.5073,-7.38552 -3.30495,-3.19804 -7.96943,-7.80872 -10.36552,-10.24595 -5.74006,-5.83863 -12.75561,-12.75375 -19.18465,-18.91 -2.86853,-2.74682 -6.24733,-6.10505 -7.50844,-7.46273 l -2.29293,-2.46852 -0.1116,-1.93336 c -0.1475,-2.5554 0.0135,-3.00169 1.68839,-4.67986 0.78118,-0.78271 2.83995,-2.87465 4.57504,-4.64876 1.7351,-1.77412 4.92773,-4.94655 7.09474,-7.04985 2.167,-2.10331 4.48613,-4.35645 5.15361,-5.00699 0.66748,-0.65054 2.05107,-2.06991 3.07463,-3.15414 1.02356,-1.08424 3.5878,-3.68641 5.69832,-5.7826 2.11051,-2.09619 12.32318,-12.26829 22.69482,-22.60468 10.37165,-10.33638 19.57508,-19.50311 20.45208,-20.37049 6.57359,-6.50158 6.49484,-6.43295 7.71032,-6.71928 0.96074,-0.22632 1.43672,-0.19688 2.43914,0.15086 1.51685,0.52618 2.34549,1.18669 5.10776,4.07139 1.17666,1.2288 6.46752,6.56253 11.75744,11.85273 5.28997,5.2902 10.42934,10.51171 11.4208,11.60336 0.99148,1.09164 6.94949,7.11283 13.24004,13.3804 6.29048,6.26757 12.25492,12.22355 13.25422,13.2355 3.33397,3.37621 11.22105,11.24575 16.38551,16.34911 7.20208,7.11688 6.96617,6.79871 6.9589,9.38457 -0.008,3.04631 0.49448,2.40165 -9.57837,12.27558 -3.30495,3.23968 -6.67735,6.59901 -7.49418,7.46518 -0.81686,0.86616 -2.19422,2.22538 -3.06077,3.02049 -0.86656,0.79511 -3.29287,3.16071 -5.39182,5.2569 -2.09894,2.09619 -4.72721,4.63922 -5.84056,5.65118 -1.11331,1.01195 -2.14233,2.036 -2.28666,2.27568 -0.23273,0.38644 -6.63856,6.77547 -10.35939,10.33224 -0.76116,0.72757 -7.22675,7.17774 -14.36802,14.3337 -15.96398,15.99683 -17.02643,17.02798 -18.17782,17.64222 -1.07119,0.57146 -2.93539,0.62558 -4.22745,0.12271 z m 3.38055,-2.9243 c 0.63608,-0.38977 17.98459,-17.54773 20.27567,-20.05298 l 1.12242,-1.22735 0.004,-17.81795 0.004,-17.81795 -5.03253,-4.73878 c -2.7679,-2.60634 -5.07466,-4.87865 -5.12612,-5.04958 -0.10907,-0.36225 3.80011,3.1929 7.98066,7.25791 l 2.91815,2.8375 1.33403,-0.0776 c 1.53133,-0.0891 1.95304,-0.58514 0.7264,-0.85447 -0.5218,-0.11457 -3.01986,-2.08214 -6.714,-5.28827 -3.23567,-2.80819 -5.97914,-5.10581 -6.09661,-5.10581 -0.11745,0 -1.59752,1.17956 -3.28903,2.62125 l -3.07546,2.62124 -6.55765,0.007 -6.55765,0.007 -2.83979,-2.29355 c -1.56189,-1.26144 -3.04637,-2.39467 -3.29883,-2.51827 -0.51803,-0.25362 -0.27785,-0.45911 -7.23646,6.19131 l -4.60622,4.40222 0.0297,15.83686 c 0.0164,8.71028 0.11775,16.45043 0.22534,17.20033 0.18744,1.30635 0.39797,1.5651 5.02603,6.17687 2.65671,2.64736 7.75448,7.72919 11.32837,11.29294 3.57391,3.56375 6.67311,6.54099 6.88715,6.61609 0.77279,0.27113 1.92122,0.16989 2.56791,-0.22635 l 1e-4,0 z m 25.68515,-25.42015 c 1.22752,-1.19266 7.56094,-7.49182 14.07427,-13.99814 6.51333,-6.50632 13.14576,-13.13001 14.73874,-14.71932 1.59302,-1.58932 4.91016,-4.90043 7.37148,-7.35803 2.46128,-2.4576 6.0802,-6.06515 8.04199,-8.01678 1.96179,-1.95162 3.81559,-3.90325 4.11962,-4.33694 0.74253,-1.05929 0.69827,-2.22631 -0.12102,-3.19035 -0.85163,-1.00209 -11.13242,-11.34172 -19.3039,-19.41438 -1.98297,-1.95899 -3.94341,-3.95724 -4.35653,-4.44057 -0.76789,-0.89839 -1.81408,-1.95708 -9.16372,-9.27325 -2.31346,-2.30293 -4.75428,-4.76407 -5.42404,-5.4692 l -1.21773,-1.28207 -1.35644,1.55868 c -0.74605,0.85727 -2.09089,2.48638 -2.98857,3.62025 l -1.63214,2.06156 -0.0917,9.79284 -0.0917,9.79285 -3.36348,0.16956 c -1.84993,0.0933 -4.61415,0.17009 -6.14269,0.17075 l -2.77916,0.001 0,1.40643 c 0,1.98321 0.47669,3.05051 1.845,4.13101 l 1.18744,0.93765 -0.80767,1.90629 c -0.92713,2.18817 -1.43648,2.57344 -3.85829,2.91826 -2.10098,0.29914 -3.22388,0.88816 -5.22872,2.74265 -1.77296,1.64 -2.15126,2.33986 -2.15126,3.97971 0,0.66973 -0.14007,1.16569 -0.3292,1.16569 -0.18105,0 -0.68821,0.22366 -1.12705,0.49703 -1.19594,0.745 -4.66851,1.44786 -5.41849,1.09672 -0.43604,-0.20415 -0.81719,-0.19624 -1.38144,0.0287 -1.04511,0.41659 -5.28305,-0.0746 -7.34756,-0.85154 -2.14912,-0.8088 -3.62508,-2.3055 -3.62508,-3.67598 0,-1.41532 -0.57006,-2.30535 -2.39693,-3.74228 -1.46747,-1.15424 -2.07225,-1.45766 -5.76891,-2.89428 -1.49472,-0.58088 -1.74585,-0.78808 -2.02636,-1.67184 -0.43686,-1.37635 -0.40468,-2.22038 0.12713,-3.33386 0.67323,-1.4096 0.66709,-16.61202 -0.007,-17.26363 -0.41325,-0.39948 -0.37237,-0.58423 0.42136,-1.90427 l 0.87901,-1.46187 -0.68868,-0.15121 c -0.89548,-0.19662 -1.19104,-0.90319 -0.61197,-1.46297 0.29469,-0.28488 0.45792,-0.96365 0.45792,-1.90425 l 0,-1.46159 -3.28397,-0.0983 c -1.80617,-0.0541 -3.3948,-0.19524 -3.53028,-0.31368 -0.13548,-0.11844 -0.29353,-1.20106 -0.35123,-2.40582 -0.0986,-2.05862 -0.14834,-2.20001 -0.82624,-2.34886 -0.9071,-0.19917 -0.92854,-0.56416 -0.0453,-0.77123 1.34478,-0.31528 3.83073,-0.0891 3.83073,0.34849 0,0.1045 -0.338,0.32472 -0.75112,0.4894 -0.66919,0.26674 -0.75113,0.45772 -0.75113,1.75068 l 0,1.45128 2.85428,0 2.85427,0 0,-10.27286 c 0,-8.10014 -0.0794,-10.25023 -0.37556,-10.16584 -0.20656,0.0589 -1.49099,1.21405 -2.85427,2.56708 l -2.47872,2.46006 0,4.79862 0,4.79862 1.10346,0.0816 c 0.60691,0.0449 1.15899,0.22943 1.22684,0.41014 0.0933,0.24838 -0.62204,0.32856 -2.9312,0.32856 -2.30915,0 -3.02446,-0.0802 -2.93119,-0.32856 0.0678,-0.18071 0.61993,-0.36527 1.22683,-0.41014 l 1.10346,-0.0816 -0.0119,-4.12395 -0.0119,-4.12394 -1.38534,1.31422 c -1.66543,1.57995 -4.6897,4.57126 -9.59417,9.4896 -2.00329,2.00896 -5.72136,5.70248 -8.26237,8.20782 -2.54101,2.50534 -5.49883,5.45945 -6.57294,6.56468 -1.07411,1.10524 -6.33443,6.3888 -11.68959,11.74124 -13.54838,13.54149 -13.06004,12.93119 -11.78304,14.72578 0.77757,1.09271 15.14792,15.49576 21.23701,21.28533 4.28126,4.07066 22.81914,22.41844 26.42183,26.15088 0.82624,0.85599 1.87405,1.8078 2.32848,2.11514 l 0.82624,0.5588 0,-15.52694 0,-15.52694 -1.46016,0 c -1.2468,0 -11.60527,-0.62104 -12.09017,-0.0139 -1.70947,2.14045 -3.86421,3.22009 -6.42664,3.22009 -6.39184,0 -9.55153,-6.82885 -5.14028,-11.10941 0.59631,-0.57865 1.62502,-1.26756 2.28601,-1.53092 1.55959,-0.62139 4.14896,-0.62139 5.70855,0 1.48751,0.59267 3.312,2.32799 4.06641,3.86768 0.95574,1.95058 11.31615,2.52262 17.63814,-3.15832 3.09839,-2.78422 5.63343,-5.19942 5.63343,-5.36714 0,-0.39614 -6.54108,-6.62425 -9.00979,-8.57868 -1.04984,-0.83126 -2.15791,-1.51128 -2.46239,-1.51128 -0.37545,0 -16.07452,0.46226 -16.60184,1.43657 -2.79222,5.15916 -9.7227,5.53093 -12.97178,0.69585 -1.08218,-1.61043 -1.36461,-4.23289 -0.15811,-6.20652 1.2065,-1.97364 3.70376,-3.54841 6.5742,-3.54841 2.23194,0 3.42101,0.53318 5.35182,2.39975 1.457,1.40852 16.97509,1.54292 18.11018,1.54292 0.94504,0 1.45233,0.17345 2.11414,0.72283 0.90095,0.74789 10.77935,10.20557 11.87376,11.36805 1.50275,1.59622 -4.74221,-3.90486 -8.29487,-7.30682 l -3.92492,-3.75842 -1.38431,0.0786 c -1.57929,0.0897 -1.84916,0.53949 -0.44138,0.7357 0.7695,0.10725 2.54991,1.6137 9.67999,8.1905 10.40417,9.59683 9.94982,9.32022 15.74656,9.58702 3.19936,0.14724 4.14647,0.0991 5.70857,-0.28997 1.8727,-0.46647 1.87339,-0.46701 11.33699,-8.84207 6.38378,-5.6495 9.7819,-8.47061 10.4403,-8.66755 1.24176,-0.37145 0.98112,-0.76647 -0.50568,-0.76647 -1.10163,0 -1.35716,0.19739 -6.51706,5.03402 -2.95375,2.76871 -5.75289,5.43081 -6.22028,5.91579 -0.46737,0.48498 -1.11983,1.00822 -1.44987,1.16275 -0.52753,0.24699 -0.56407,0.22294 -0.30205,-0.19892 0.29213,-0.47032 8.93731,-8.86344 11.93267,-11.58476 1.32529,-1.20401 1.67056,-1.38077 2.70408,-1.38428 1.39021,-0.005 15.3683,-0.0724 16.50324,-1.40356 0.47513,-0.55732 1.48104,-1.35571 2.23535,-1.7742 1.19198,-0.66131 1.66026,-0.76089 3.578,-0.76089 2.65672,0 4.02176,0.52236 5.61183,2.14752 1.40607,1.43706 1.77506,2.57277 1.63337,5.02738 -0.0981,1.69902 -0.24788,2.15699 -1.01982,3.11787 -1.43474,1.78587 -3.02652,2.618 -5.3155,2.77874 -3.49002,0.24509 -5.8082,-0.90676 -7.46452,-3.7089 -0.56506,-0.95599 -15.02036,-1.7386 -15.19482,-1.73913 -0.70447,-0.002 -2.62506,1.55053 -7.38668,5.97173 l -4.99982,4.64238 4.8175,4.39612 c 6.52034,5.95001 18.2393,4.98438 19.16098,3.39373 1.37189,-2.36763 2.09062,-3.09099 3.84982,-3.8746 3.75788,-1.67388 7.66745,-0.47798 9.61502,2.94116 1.09433,1.92116 1.05197,3.58911 -0.14439,5.68354 -1.07375,1.87985 -1.80513,2.44797 -4.13545,3.21229 -2.8784,0.9441 -4.86221,0.38636 -7.59504,-2.13532 -1.52905,-1.41092 -13.04782,-0.3131 -14.17529,-0.3131 l -1.24329,0 0.003,14.91646 c 0.003,14.36922 0.11699,17.67634 0.61192,17.67634 0.1267,0 1.2347,-0.97581 2.46222,-2.16847 l -3e-4,0 -9e-5,0 0,1e-5 z m -27.11337,-39.75598 c -0.65991,-0.6956 0.11846,-2.75922 1.04075,-2.75922 0.42256,0 1.06299,1.10698 1.06299,1.83738 0,0.27413 -0.30047,0.68255 -0.66774,0.90759 -0.82702,0.50676 -0.96748,0.50815 -1.436,0.0142 l 0,10e-6 z m -3.52969,-0.0371 c -0.20655,-0.0756 -0.37556,-0.34597 -0.37556,-0.60084 0,-0.60364 0.868,-2.12124 1.21325,-2.12124 0.47281,0 0.92875,1.04991 0.83278,1.91777 -0.093,0.84154 -0.7303,1.14837 -1.67047,0.80431 z m 6.70111,-0.0709 c -0.33443,-0.4734 0.10243,-2.17828 0.52694,-2.05643 0.52683,0.15123 0.59816,1.30029 0.11648,1.87658 -0.30457,0.36438 -0.47868,0.41305 -0.64342,0.17985 z m -8.83154,-0.72622 c -0.22155,-0.45918 -0.30952,-1.09205 -0.1955,-1.40639 0.33545,-0.92462 0.79803,-0.19777 0.69272,1.08846 l -0.0944,1.1528 -0.40285,-0.83487 z m 11.06882,-0.82338 c 0,-0.40607 0.1985,-0.9679 0.44114,-1.24852 0.41799,-0.48348 0.44161,-0.46658 0.45068,0.32254 0.0111,0.97742 -0.2461,1.66428 -0.62349,1.66428 -0.14758,0 -0.26833,-0.33224 -0.26833,-0.7383 z m -13.8207,-0.70735 c -0.56058,-0.50598 -0.86549,-0.91996 -0.67758,-0.91996 0.18792,0 0.43066,0.12598 0.53944,0.27997 0.12948,0.18326 0.39503,0.1238 0.76888,-0.17216 0.5524,-0.43737 0.57106,-0.41647 0.57106,0.63998 0,0.60067 -0.0411,1.09212 -0.0913,1.09212 -0.0502,0 -0.54992,-0.41398 -1.1105,-0.91995 z m 16.08696,-0.78854 c 0.20016,-0.89224 0.90742,-1.64811 1.25642,-1.3428 0.1276,0.11164 0,0.35189 -0.28528,0.53389 -0.28452,0.182 -0.65922,0.61588 -0.83266,0.96418 -0.29276,0.5878 -0.30271,0.57665 -0.13848,-0.15527 z m -50.55239,13.7618 c 3.92876,-1.77735 3.51828,-7.70631 -0.62871,-9.0809 -1.17691,-0.39011 -3.63969,-0.35009 -4.81131,0.0782 -2.99408,1.09443 -4.11262,4.98551 -2.171,7.55227 1.12762,1.49068 2.80361,2.14034 5.05648,1.96002 0.95432,-0.0764 2.10386,-0.30568 2.55454,-0.50957 z m 89.89083,-0.15268 c 1.20805,-0.29361 2.79896,-1.61192 3.27319,-2.71238 0.1754,-0.40697 0.31889,-1.48357 0.31889,-2.39245 0,-1.8886 -0.66489,-3.0127 -2.38007,-4.02389 -0.81295,-0.47927 -1.42747,-0.59766 -3.10217,-0.59766 -3.60017,0 -5.61733,1.38516 -5.868,4.02941 -0.40819,4.30603 3.04566,6.84227 7.75816,5.69697 z m -71.89379,-2.76676 c 2.15907,-1.84345 10.33091,-9.74622 10.69432,-10.34217 0.96971,-1.59021 -0.7632,-0.29648 -6.54499,4.88627 -4.31064,3.86402 -6.35727,5.52161 -6.8175,5.52161 -0.6898,0 -1.1125,0.33404 -0.78512,0.62046 0.10568,0.0924 0.70079,0.16808 1.32247,0.16808 0.86971,0 1.36101,-0.19696 2.13082,-0.85425 z m -22.17829,-19.25647 c 2.50981,-1.45304 3.1453,-5.08308 1.25266,-7.15544 -1.36632,-1.49606 -2.59022,-1.95379 -4.95038,-1.85138 -1.63313,0.0709 -1.28656,-0.3806 -3.11231,0.83768 -1.82575,1.21827 -3.01052,5.43092 -0.60003,7.60228 0.58179,0.52407 1.49353,1.06989 2.02609,1.21293 1.59136,0.42743 4.03655,0.13401 5.38397,-0.64607 z m 97.83673,0.27486 c 2.81659,-1.28782 3.82367,-4.7102 2.10282,-7.14611 -1.77867,-2.51771 -6.38195,-2.86763 -8.73507,-0.66399 -1.67357,1.56723 -2.13845,3.46091 -1.28722,5.24325 1.0197,2.13503 3.2232,3.33158 5.6661,3.07685 0.81076,-0.0845 1.82478,-0.31404 2.25337,-0.51 z m -48.0016,-0.9521 c 1.10142,-1.16699 1.27965,-2.44472 0.70501,-5.05363 -0.29246,-1.32785 -0.80515,-2.99991 -1.1393,-3.71567 -0.76006,-1.62802 -1.01294,-5.8967 -0.69762,-11.77515 l 0.22203,-4.13981 1.47061,0 1.47062,0 0,-23.08449 0,-23.08449 -1.94527,-1.98653 c -1.9388,-1.97992 -2.43211,-2.31076 -3.44555,-2.31076 -0.4204,0 -0.57492,0.29451 -0.72394,1.37994 -0.1042,0.75896 -0.19063,10.03228 -0.19208,20.60738 l -0.003,19.22744 1.05158,0.54279 c 0.57836,0.29853 1.05157,0.65555 1.05157,0.79337 0,0.13783 -0.67442,0.44656 -1.49871,0.68608 -1.93138,0.56121 -2.08347,0.81923 -0.58644,0.99489 1.24317,0.14588 2.18682,0.6209 1.93673,0.97492 -0.078,0.11041 -0.75251,0.33527 -1.49895,0.4997 -0.7464,0.16442 -1.35713,0.39468 -1.35713,0.51168 0,0.11699 0.64221,0.38142 1.42713,0.58762 0.78493,0.20619 1.42714,0.48732 1.42714,0.62474 0,0.13741 -0.73324,0.49465 -1.62946,0.79385 -1.87955,0.62749 -2.14936,0.97709 -1.08236,1.4024 l 0.7589,0.30251 0,6.72121 0,6.72121 -1.09129,0.97265 c -1.58049,1.40859 -1.94007,2.38929 -2.30596,6.28914 l -0.32722,3.48773 0.96992,0.87547 0.96997,0.87547 2.77008,-0.084 c 2.38305,-0.0723 2.84313,-0.1614 3.2926,-0.63762 l 3e-4,0 1e-4,0 z m 9.25536,-9.52047 c 0.009,-2.02858 0.15966,-3.2678 0.4852,-3.99287 1.04292,-2.32301 0.79216,-4.08705 -0.7298,-5.13439 -1.46901,-1.01091 -3.84401,-0.39724 -4.72117,1.21988 -0.58952,1.08681 -0.57597,1.98913 0.048,3.20012 0.3198,0.62071 0.56644,2.01905 0.67601,3.83285 l 0.17249,2.85562 1.80269,0.59402 c 0.99149,0.3267 1.9041,0.54277 2.02804,0.48014 0.12394,-0.0626 0.23126,-1.43755 0.23853,-3.05537 z m 2.85166,2.17375 c 0.75013,-0.72512 1.31303,-2.331 1.33237,-3.80102 0.0353,-2.68638 -0.43505,-2.49703 6.20336,-2.49703 l 5.82374,0 0,-9.32139 0,-9.32139 3.35149,-4.10363 3.35151,-4.10362 -0.93827,-0.82085 c -0.51605,-0.45147 -0.99133,-0.76778 -1.05617,-0.70291 -0.0648,0.0649 -1.72539,2.18785 -3.69016,4.71773 l -3.57222,4.59979 -0.0937,8.60818 c -0.0855,7.85348 -0.13818,8.6113 -0.6009,8.64377 -0.27894,0.0196 -2.64958,0.10829 -5.26809,0.19714 l -4.7609,0.16153 -0.37592,0.95881 c -0.20674,0.52734 -0.66697,1.28255 -1.02273,1.67823 -0.56148,0.62446 -0.64687,1.05687 -0.64687,3.27598 l 0,2.55656 0.73313,-0.12262 c 0.40323,-0.0674 0.9569,-0.3389 1.23037,-0.60326 z m -24.83167,-0.39679 c 0.91699,-0.36727 2.3814,-1.13945 3.2542,-1.71596 l 1.58695,-1.04819 0,-3.02264 c 0,-4.6338 -0.72826,-5.63422 -4.10147,-5.63422 -1.24828,0 -2.01206,-0.12899 -2.31068,-0.39024 -0.66547,-0.58217 -0.80661,-3.01347 -0.88142,-15.18346 l -0.0675,-10.97392 1.55639,1.3e-4 1.55639,1.4e-4 -0.27948,0.85251 c -0.15371,0.46888 -0.27948,5.31837 -0.27948,10.77665 l 0,9.92413 2.28214,0 c 2.43313,0 3.8716,0.47095 4.19957,1.37492 0.29525,0.81382 0.7291,0.22328 0.7291,-0.99243 0,-1.0655 -0.10086,-1.22196 -1.19687,-1.85648 -0.65829,-0.3811 -1.12918,-0.78873 -1.04647,-0.90584 0.0828,-0.11711 0.89789,-0.35926 1.81151,-0.53812 0.91357,-0.17887 1.72307,-0.41298 1.79885,-0.52025 0.0758,-0.10727 -0.4374,-0.27842 -1.14039,-0.38032 -0.70302,-0.10189 -1.61621,-0.33946 -2.02933,-0.52792 l -0.75112,-0.34265 0.90135,-0.3105 c 0.49574,-0.17078 1.40835,-0.37325 2.02803,-0.44994 1.58593,-0.19626 1.40103,-0.50449 -0.52933,-0.88242 -2.30643,-0.45155 -2.66409,-0.91428 -0.99515,-1.28748 0.71453,-0.15978 1.6778,-0.42009 2.14061,-0.57847 l 0.8415,-0.28796 -0.8415,-0.76762 c -0.811,-0.73982 -0.8451,-0.88123 -0.94172,-3.90526 l -0.1003,-3.13765 -0.95131,-0.004 c -1.96131,-0.008 -1.83677,0.97148 -1.96059,-15.42726 l -0.11272,-14.92733 -1.8768,1.76564 c -1.38369,1.30174 -1.92616,2.02687 -2.06462,2.75988 -0.30408,1.60962 -0.22131,6.89886 0.11658,7.45121 0.28926,0.47283 0.19988,0.50843 -1.27691,0.50873 l -1.58793,2.7e-4 0.08,-2.95733 0.08,-2.95734 -1.65738,1.55392 -1.65738,1.55391 0,10.70344 0,10.70344 -0.67601,0.15849 c -0.37181,0.0872 -1.04782,0.1601 -1.50225,0.16208 l -0.82624,0.004 0,4.3621 c 0,3.6804 0.0822,4.48466 0.52579,5.14633 0.5156,0.76904 0.51193,0.79409 -0.1895,1.29331 l -0.71529,0.50909 0.95824,1.57283 0.95824,1.57282 -0.76874,0 -0.76874,0 0.003,6.63684 c 0.003,6.40108 0.0279,6.68353 0.7045,7.95107 0.81869,1.53361 2.13474,2.97328 3.02368,3.30768 0.943,0.35473 3.08114,0.0557 4.94799,-0.69199 l -7e-5,0 z m 0.76329,-44.27665 c 0,-3.25271 0.0431,-4.58336 0.0959,-2.95701 0.0527,1.62636 0.0527,4.28767 0,5.91402 -0.0527,1.62635 -0.0959,0.2957 -0.0959,-2.95701 z m -3.90667,0 c 0,-3.10814 0.0435,-4.37965 0.0966,-2.82558 0.0531,1.55407 0.0531,4.0971 0,5.65117 -0.0531,1.55407 -0.0966,0.28256 -0.0966,-2.82559 z m 20.00255,42.12668 c 0,-1.16507 -0.19661,-1.77937 -0.93665,-2.92651 -0.921,-1.42764 -0.9393,-1.52578 -1.09559,-5.86956 l -0.15893,-4.41765 -0.73097,0 -0.73094,0 0.0989,6.25485 c 0.0869,5.49433 0.16486,6.34277 0.64107,6.97795 0.59754,0.79704 2.27846,1.79862 2.6665,1.58882 0.13562,-0.0733 0.24657,-0.79688 0.24657,-1.6079 z m 9.24436,-12.88862 0.0807,-6.10769 -0.78423,0 -0.78427,0 1.05846,-1.68455 1.0584,-1.68455 -0.69726,-0.15309 c -0.98752,-0.21684 -1.20603,-0.92275 -0.47104,-1.52178 0.59476,-0.48478 0.60886,-0.781 0.60886,-12.80623 l 0,-12.30998 -1.45896,-1.59668 -1.45892,-1.59668 -0.19175,2.15458 c -0.10546,1.18502 -0.19253,5.83704 -0.19352,10.33783 l -0.003,8.18326 -0.67601,0.15848 c -0.37181,0.0872 -1.13168,0.16011 -1.68859,0.16208 l -1.01257,0.004 0.13039,1.57707 c 0.1279,1.54709 0.11573,1.57708 -0.63989,1.57716 l -0.7703,9e-5 0.0848,-14.58259 0.0848,-14.58259 -1.05313,-0.99107 -1.05314,-0.99107 -0.008,23.42224 c -0.008,22.00362 0.0784,25.86122 0.57695,25.86122 0.11162,0 0.50662,-0.2475 0.87777,-0.54999 0.66231,-0.53981 0.6731,-0.64696 0.58245,-5.7829 l -0.0924,-5.23289 0.75113,1.3e-4 0.75112,1.2e-4 -0.10167,5.22003 -0.10164,5.22003 1.30344,0.28717 c 1.57378,0.34672 3.32478,1.84 3.85086,3.28406 0.25478,0.69931 0.51386,0.97496 0.86142,0.9165 0.44262,-0.0745 0.50587,-0.75236 0.57768,-6.19129 l 0.001,0 -4e-5,0 z m -6.12749,-12.0217 c 0,-1.59022 0.0482,-2.27464 0.10873,-1.52096 0.0605,0.75369 0.061,2.05477 0,2.8913 -0.0598,0.83652 -0.10927,0.21987 -0.10996,-1.37034 l 0.001,0 3e-5,0 z m -2.1058,0 c 0,-1.44565 0.049,-2.07059 0.11069,-1.38875 0.0617,0.68184 0.0623,1.86464 0,2.62845 -0.061,0.76381 -0.1114,0.20594 -0.11218,-1.2397 l 0.001,0 z m 16.7155,10.26266 0,-8.00508 3.58972,-4.75551 c 1.97431,-2.61553 3.67669,-4.99532 3.78302,-5.28841 0.17868,-0.49247 -0.009,-0.98681 -0.27894,-0.73423 -0.2713,0.254 -6.14954,7.68953 -8.33099,10.53809 l -2.36823,3.09246 0,1.94624 0,1.94622 -0.93891,0.16428 c -0.51639,0.0904 -1.3276,0.16428 -1.8027,0.16428 l -0.86379,0 0,4.46837 0,4.46837 3.6054,0 3.60542,0 0,-8.00508 z m -4.80723,-3.80602 0,-1.56013 5.57933,-7.25077 5.57932,-7.25077 -1.29791,-1.14132 c -0.71384,-0.62772 -2.0244,-1.93535 -2.91235,-2.90583 -0.88792,-0.97049 -1.71674,-1.66676 -1.84176,-1.54726 -0.12504,0.1195 -1.866,2.33603 -3.8688,4.92563 l -3.64142,4.70836 0,3.10203 c 0,2.83302 0.0521,3.12644 0.6009,3.38338 0.77362,0.36221 0.76542,0.92076 -0.0207,1.40244 -0.62125,0.38066 -0.6211,0.38167 0.29498,1.96924 l 0.91652,1.58838 -0.82077,0.0827 c -0.5948,0.0599 -0.84796,0.25078 -0.91962,0.69322 -0.16567,1.02301 0.15485,1.36083 1.29125,1.36083 l 1.061,0 0,-1.56014 6e-5,0 z m -36.72623,-21.48269 c -0.0806,-9.57458 -0.2008,-10.48483 -1.18525,-8.97454 -0.30053,0.46105 -0.41837,2.74447 -0.48919,9.47839 l -0.0933,8.87103 0.92331,0 0.92331,0 -0.0789,-9.37488 z m 14.19247,-8.02208 0,-16.08273 -0.90135,0.75547 -0.90135,0.75546 0,15.32727 0,15.32726 0.90135,0 0.90135,0 0,-16.08273 z m 14.72207,4.83374 0,-10.72331 -1.2018,-1.02665 -1.2018,-1.02664 0,11.74995 0,11.74995 1.2018,0 1.2018,0 0,-10.7233 z m 12.01799,1.98551 c 0,-0.23398 -1.983,-2.3651 -3.60539,-3.87468 -0.41312,-0.38439 -1.10731,-1.1044 -1.5427,-1.60001 -0.43535,-0.49561 -0.90855,-0.80277 -1.05157,-0.68257 -0.30979,0.2604 -0.53645,12.51548 -0.25568,13.82485 0.19427,0.90599 0.20773,0.89283 3.32523,-3.2557 1.72154,-2.29095 3.13011,-4.2763 3.13011,-4.41189 z"
     id="path2818"
     sodipodi:nodetypes="csssssssscccsssssssssssssssssssssssssscccccccscccssscccccscccsssscccsssssssssccccccccccccccsssssssssssssscccscccsssssscccccscccccssscccccssssssscccccsssssssssssszssssscccsssssssssssssssssssssscccsssssscccscccccscccccscccccccccccccsccccsssccccsccccssccccsssccccssscccczssccccsscccccccccccsscccssssssssscccccccccccccsccscccsccscccccccscccscccsccccccccssccccccccssssssscccssscccccccccssccccccccccccscccccccsscccscccscccscccccssccccccccsccccccccccccccccccsscccccccsscccsccccsccccccscccccccccccccccccccscccsscccscccccsccccccccccccccccccccccccssscccssscc"
     inkscape:connector-curvature="0" />
</svg>
